<svg preserveAspectRatio="xMidYMid meet" viewBox="0 0 296.79715302491104 383.76" xmlns="http://www.w3.org/2000/svg" version="1.0" style="max-height: 500px" width="296.79715302491104" height="383.76">
<metadata>
Created by potrace 1.10, written by Peter Selinger 2001-2011
</metadata>
<g stroke="none" fill="#000000" transform="translate(0.000000,533.000000) scale(0.100000,-0.100000)">
<path d="M812 2624 c-27 -19 -28 -32 -1 -89 11 -24 18 -49 14 -56 -4 -6 -28&#xA;-20 -52 -31 -25 -11 -47 -28 -50 -37 -4 -15 -12 -16 -61 -10 -31 5 -64 6 -74&#xA;3 -16 -5 -98 -196 -113 -264 -4 -19 -15 -40 -23 -46 -31 -23 -6 -41 76 -54 44&#xA;-7 86 -9 92 -5 7 4 16 2 20 -4 4 -8 26 -11 56 -9 l49 3 -70 17 c-38 9 -85 20&#xA;-102 23 -56 11 -38 28 22 22 43 -4 55 -2 55 9 0 11 -16 14 -69 14 -39 0 -72 3&#xA;-74 8 -5 8 43 168 67 225 15 34 19 37 59 37 23 0 53 -3 65 -7 21 -5 23 -10 17&#xA;-37 -3 -17 -8 -56 -11 -86 -4 -50 -3 -52 8 -29 12 23 16 25 41 16 33 -11 45&#xA;-4 28 17 -12 14 -51 113 -51 128 0 12 38 9 46 -3 10 -16 25 12 18 33 -4 13 -1&#xA;16 10 12 17 -7 36 22 36 56 0 20 41 10 50 -12 7 -19 9 -20 9 -5 1 11 -13 32&#xA;-30 48 -22 21 -30 36 -27 56 5 43 31 36 36 -10 2 -24 14 -49 34 -70 16 -17 34&#xA;-43 39 -56 5 -13 12 -21 15 -18 3 3 1 14 -5 26 -15 27 -1 33 36 14 31 -14 32&#xA;-17 29 -68 -1 -30 -9 -61 -16 -70 -19 -23 -3 -32 20 -9 25 25 40 36 74 54 47&#xA;25 54 45 26 75 -14 15 -34 25 -51 25 -18 0 -35 9 -48 26 -19 24 -26 26 -65 21&#xA;l-44 -6 -6 50 c-4 28 -12 59 -19 70 -14 23 -54 25 -85 3z m272 -243 c3 -5 -1&#xA;-15 -10 -22 -13 -10 -17 -10 -25 2 -5 8 -9 17 -9 22 0 10 38 9 44 -2z"/>
<path d="M2367 2622 c-21 -23 -22 -70 -1 -93 14 -16 13 -19 -18 -41 -18 -12&#xA;-42 -28 -53 -34 -11 -6 -35 -40 -52 -74 -18 -35 -37 -68 -43 -74 -22 -22 -9&#xA;-46 40 -71 48 -24 49 -26 38 -53 -7 -15 -13 -29 -14 -30 -1 -2 -12 6 -24 18&#xA;-20 20 -30 22 -86 17 l-63 -6 -7 37 c-4 20 -19 51 -33 69 -14 18 -36 45 -48&#xA;61 -19 25 -33 31 -100 42 -166 27 -716 18 -748 -11 -5 -6 -4 -9 4 -9 7 0 9 -4&#xA;6 -10 -3 -5 0 -10 7 -10 9 0 9 -3 -2 -11 -12 -8 -12 -10 5 -8 53 4 56 0 23&#xA;-31 -17 -16 -34 -30 -38 -30 -5 0 -4 -17 1 -37 4 -21 7 -38 6 -38 -1 -1 -39&#xA;-6 -85 -13 -100 -14 -148 -35 -57 -25 68 7 66 7 120 4 38 -3 39 -3 12 -11 -15&#xA;-5 -65 -11 -110 -14 -45 -3 -83 -10 -85 -16 -2 -5 -8 -8 -13 -4 -5 3 -9 0 -9&#xA;-6 0 -6 -10 -8 -23 -5 -13 4 -30 7 -38 8 -8 2 -20 6 -26 10 -13 8 -14 7 -17&#xA;-15 -1 -7 -11 -13 -24 -12 -23 1 -31 -21 -10 -28 21 -7 0 -38 -27 -38 -37 0&#xA;-30 -17 11 -24 26 -5 34 -11 30 -22 -3 -9 -7 -30 -7 -47 l-1 -32 -8 30 c-9 35&#xA;-11 33 -15 -18 -1 -20 1 -40 6 -42 4 -3 6 -17 3 -31 -4 -23 -2 -25 23 -22 16&#xA;2 27 8 26 16 -2 6 2 12 7 12 6 0 10 7 10 15 0 24 -20 17 -31 -11 -13 -36 -23&#xA;-23 -15 21 7 35 23 44 43 24 15 -15 28 8 14 25 -6 8 -8 27 -5 47 4 20 3 31 -2&#xA;26 -5 -5 -9 -12 -9 -15 -2 -20 -18 -52 -26 -52 -12 0 -11 47 1 55 8 5 8 11 0&#xA;20 -12 14 -4 41 18 68 13 14 25 16 65 11 39 -5 53 -4 61 8 6 8 34 18 61 22 28&#xA;4 64 9 80 12 121 21 500 23 759 4 154 -11 214 -8 185 11 -10 6 -8 9 9 9 31 0&#xA;30 -37 -3 -52 -29 -13 -34 -28 -7 -21 24 6 38 -13 45 -60 6 -36 5 -38 -16 -31&#xA;-30 9 -30 10 -30 44 0 16 -1 30 -1 30 -1 0 -15 -4 -33 -9 -18 -5 -33 -5 -35&#xA;-1 -2 5 -40 11 -86 13 -46 3 -86 8 -89 10 -3 3 -16 1 -29 -5 -18 -9 -30 -8&#xA;-49 2 -31 17 -592 21 -603 4 -7 -11 -52 -14 -52 -4 0 9 -84 -1 -97 -12 -7 -5&#xA;-30 -8 -52 -7 -22 2 -43 0 -47 -3 -3 -4 -12 -4 -19 -2 -21 8 -12 -30 9 -39 14&#xA;-5 17 -13 12 -33 -5 -17 -3 -23 4 -19 5 3 10 17 10 30 0 13 4 26 9 30 5 3 51&#xA;6 103 6 55 0 99 5 107 12 10 9 99 12 310 12 282 0 296 -1 293 -19 -2 -11 1&#xA;-15 8 -11 6 4 8 16 4 28 -6 20 -5 20 10 8 9 -8 35 -14 56 -14 22 0 40 -4 40&#xA;-9 0 -4 5 -8 10 -8 6 0 10 7 10 15 0 8 4 15 9 15 5 0 14 -7 21 -15 14 -17 40&#xA;-20 40 -5 0 6 5 10 11 10 5 0 7 -4 4 -10 -3 -5 6 -12 21 -16 17 -4 29 -2 34 6&#xA;6 10 9 8 13 -6 4 -15 5 -14 6 5 2 50 31 -7 35 -68 1 -16 -5 -25 -17 -27 -29&#xA;-4 -29 -10 -2 -22 21 -10 25 -9 25 3 0 8 5 15 11 15 7 0 8 11 4 30 -5 24 -4&#xA;29 8 24 11 -4 15 -23 16 -72 1 -102 4 -116 26 -123 13 -3 19 -12 17 -24 -3&#xA;-12 1 -16 12 -12 8 3 19 1 23 -6 5 -8 9 -3 13 12 5 23 6 23 23 7 9 -10 17 -13&#xA;17 -7 0 5 14 9 30 9 23 -1 30 -6 30 -20 0 -11 5 -16 10 -13 16 10 11 42 -7 50&#xA;-29 12 -106 15 -119 4 -7 -5 -14 -6 -17 -2 -7 11 -17 117 -19 193 -1 36 -7 77&#xA;-14 91 -7 14 -9 30 -6 37 12 18 148 34 146 17 -1 -6 -4 -25 -8 -43 -5 -27 -2&#xA;-35 12 -39 11 -2 24 -26 36 -63 21 -66 23 -98 12 -154 l-9 -39 45 7 c34 5 48&#xA;3 58 -9 9 -11 9 -15 1 -15 -7 0 -9 -5 -6 -10 11 -17 27 1 21 24 -7 24 13 186&#xA;24 201 4 6 11 29 15 53 4 24 11 39 17 36 5 -4 8 -17 5 -30 -2 -13 0 -24 5 -24&#xA;14 0 30 51 20 64 -16 20 -25 70 -23 126 2 37 -6 80 -23 130 -41 125 -42 138&#xA;-12 150 16 6 26 17 26 30 0 11 4 20 9 20 5 0 5 16 1 37 -5 20 -6 41 -3 46 18&#xA;30 -94 38 -120 9z m80 -51 c4 -16 0 -36 -12 -55 -26 -45 -36 -106 -21 -136 18&#xA;-36 36 -133 40 -219 3 -59 0 -82 -15 -108 -10 -18 -17 -33 -14 -33 2 0 -2 -18&#xA;-10 -41 -8 -23 -13 -45 -10 -49 3 -5 1 -11 -5 -15 -5 -3 -10 -26 -10 -51 0&#xA;-32 -3 -43 -12 -38 -8 5 -9 2 -5 -9 4 -12 1 -17 -9 -17 -13 0 -15 6 -9 28 11&#xA;39 7 90 -10 123 -8 15 -15 36 -15 46 0 10 -7 27 -15 37 -17 23 -20 66 -4 66 6&#xA;0 4 9 -5 22 -13 19 -13 25 0 56 14 35 14 37 -13 61 -15 14 -32 25 -37 23 -26&#xA;-9 -22 28 11 90 30 57 83 115 83 91 0 -5 5 -1 10 7 8 13 11 12 24 -5 15 -18&#xA;15 -17 4 14 -8 26 -8 39 1 53 8 12 8 24 2 36 -7 12 -5 21 7 33 24 23 42 19 49&#xA;-10z m-637 -191 c12 -8 12 -10 -3 -16 -9 -3 -14 -10 -11 -15 9 -15 -37 -10&#xA;-52 6 -17 17 -109 22 -99 5 3 -5 19 -7 34 -4 16 3 31 2 35 -4 7 -12 -143 -10&#xA;-163 2 -9 6 -12 5 -7 -2 4 -7 -5 -9 -30 -5 -25 4 -39 2 -45 -8 -8 -12 -12 -10&#xA;-25 6 -9 12 -18 16 -22 10 -4 -6 -14 -11 -22 -12 -8 -1 -34 -6 -57 -11 -31 -7&#xA;-49 -6 -65 4 -13 7 -34 19 -48 25 -25 13 -25 13 15 19 62 10 548 10 565 0z&#xA;m54 -9 c4 -5 0 -12 -6 -15 -7 -3 1 -4 17 -2 17 2 36 -1 43 -7 9 -7 11 -6 6 7&#xA;-3 9 -1 16 5 16 6 0 11 -9 11 -20 0 -19 -6 -20 -59 -19 -42 1 -62 6 -66 17 -3&#xA;10 0 12 10 8 9 -3 15 0 15 9 0 17 16 20 24 6z m6 -76 c42 -2 84 -7 93 -11 23&#xA;-8 65 -93 59 -118 -3 -15 -10 -17 -40 -12 -21 3 -47 6 -59 6 -14 0 -23 6 -23&#xA;15 0 8 -9 19 -19 25 -25 13 -148 13 -156 0 -3 -6 -52 -10 -108 -11 -56 0 -126&#xA;-4 -155 -8 -40 -6 -55 -4 -64 7 -10 11 -33 13 -110 9 -54 -3 -98 -3 -98 -1 0&#xA;3 5 25 11 50 10 40 14 44 43 45 17 1 96 5 176 8 140 7 292 5 450 -4z"/>
<path d="M830 2347 c0 -26 4 -47 9 -47 8 0 3 79 -5 89 -2 2 -4 -17 -4 -42z"/>
<path d="M672 2183 c-19 -4 -23 -10 -20 -36 3 -31 4 -32 56 -34 50 -1 76 11&#xA;30 14 -13 1 -24 7 -26 13 -2 5 -8 8 -13 5 -5 -4 -6 1 -3 9 3 9 12 16 20 16 8&#xA;0 14 5 14 10 0 10 -16 11 -58 3z"/>
<path d="M441 1929 c-2 -110 -1 -119 19 -129 18 -10 23 -7 22 10 0 3 8 7 19 7&#xA;10 1 19 -2 19 -8 0 -5 5 -9 11 -9 5 0 8 4 5 9 -4 5 4 7 16 4 19 -5 21 -3 10 8&#xA;-7 8 -33 15 -58 15 -50 2 -59 6 -51 29 4 10 19 15 44 15 27 0 34 3 23 9 -8 6&#xA;-18 7 -22 5 -4 -3 -8 4 -8 15 0 12 -4 21 -9 21 -12 0 -20 36 -14 60 3 11 12&#xA;20 19 20 24 0 15 18 -14 28 l-28 10 -3 -119z"/>
<path d="M210 1820 c0 -5 -13 -10 -29 -10 -17 0 -32 -4 -36 -10 -3 -5 -12 -7&#xA;-20 -3 -19 7 -19 -16 -1 -40 13 -16 14 -16 19 5 4 12 9 20 12 16 3 -3 22 0 42&#xA;7 45 15 63 10 64 -19 1 -16 2 -17 6 -3 2 9 11 17 19 17 15 0 20 26 7 33 -20&#xA;11 -83 17 -83 7z"/>
<path d="M0 1791 c0 -24 23 -54 34 -44 3 4 6 -8 6 -25 0 -18 5 -32 11 -32 7 0&#xA;9 9 5 24 -5 19 0 29 22 45 l27 22 -32 -3 c-20 -2 -39 4 -52 16 -21 19 -21 19&#xA;-21 -3z"/>
<path d="M377 1794 c-10 -11 2 -24 17 -18 7 3 16 -2 20 -12 5 -13 9 -14 21 -4&#xA;12 10 13 16 4 26 -12 14 -51 19 -62 8z"/>
<path d="M2450 1786 c0 -8 -3 -23 -7 -33 -6 -16 -5 -16 10 -5 9 8 22 10 28 6&#xA;7 -4 22 -8 33 -10 12 -1 28 -4 36 -5 8 -2 14 2 13 8 -2 8 5 11 20 9 12 -3 22&#xA;-5 22 -6 0 -1 15 -3 34 -6 22 -3 40 1 52 12 11 10 19 12 24 5 3 -6 19 -11 35&#xA;-11 17 0 30 -7 34 -17 5 -12 9 -14 18 -5 15 15 58 16 58 1 0 -8 5 -8 15 1 8 7&#xA;15 10 15 6 0 -4 11 1 25 10 25 16 34 8 15 -14 -6 -6 -7 -10 -4 -7 4 3 13 -3&#xA;20 -13 7 -9 16 -13 21 -8 4 5 2 11 -4 13 -19 7 -16 23 4 23 14 0 12 5 -9 25&#xA;-27 25 -55 35 -43 15 9 -14 -21 -24 -42 -14 -18 8 -33 11 -88 19 -82 12 -95&#xA;12 -95 -2 0 -10 -12 -12 -52 -7 -29 4 -56 11 -59 17 -4 6 -16 1 -30 -12 -15&#xA;-14 -26 -18 -33 -11 -5 5 -18 10 -28 10 -10 0 -18 5 -18 10 0 6 -4 10 -10 10&#xA;-5 0 -10 -6 -10 -14z"/>
<path d="M307 1783 c-15 -14 -6 -25 17 -19 15 4 26 1 29 -7 3 -6 6 -2 6 11 1&#xA;17 -5 22 -22 22 -13 0 -27 -3 -30 -7z"/>
<path d="M426 1721 c-5 -8 -4 -16 4 -21 7 -4 9 -13 6 -19 -13 -20 12 -12 27 9&#xA;8 11 17 17 20 13 4 -3 7 -1 7 5 0 15 -17 16 -25 2 -10 -16 -23 -12 -27 8 -3&#xA;13 -5 14 -12 3z"/>
<path d="M2780 1683 c-19 -23 -24 -53 -10 -53 5 0 10 9 10 19 0 11 5 21 12 23&#xA;6 2 9 10 7 16 -3 9 -9 7 -19 -5z"/>
<path d="M2450 1670 c0 -6 -4 -9 -9 -6 -10 6 -25 -24 -16 -32 3 -3 5 0 5 6 0&#xA;6 9 12 20 14 22 3 29 20 11 26 -6 2 -11 -1 -11 -8z"/>
<path d="M560 1650 c0 -6 11 -15 25 -22 13 -6 23 -14 21 -17 -2 -3 2 -12 10&#xA;-18 20 -19 25 -1 5 22 -22 26 -61 48 -61 35z"/>
<path d="M58 1635 c-4 -4 -4 -13 -1 -21 3 -8 0 -14 -7 -14 -6 0 -8 -5 -4 -11&#xA;5 -8 9 -8 14 1 5 8 18 10 33 6 27 -6 53 14 44 36 -3 8 -6 6 -6 -5 -1 -13 -8&#xA;-17 -28 -15 -16 2 -30 9 -33 16 -3 7 -9 10 -12 7z"/>
<path d="M250 1620 c11 -21 25 -26 35 -11 3 5 -3 12 -12 15 -10 3 -4 4 14 2&#xA;18 -1 30 1 27 6 -3 4 -21 8 -40 8 -32 0 -34 -2 -24 -20z"/>
<path d="M1702 1619 c-7 -11 -8 -20 -2 -24 6 -3 10 -2 10 3 0 5 10 13 22 19&#xA;22 9 22 10 2 15 -14 3 -25 -1 -32 -13z"/>
<path d="M210 1572 c0 -13 4 -21 9 -17 5 3 11 -1 13 -9 3 -13 6 -13 22 0 11 7&#xA;16 17 11 21 -4 5 -10 2 -13 -6 -3 -10 -9 -8 -23 10 l-19 24 0 -23z"/>
<path d="M374 1485 l-21 -23 24 2 c13 0 21 6 19 13 -3 6 7 16 22 22 l27 9 -25&#xA;0 c-14 0 -34 -10 -46 -23z"/>
<path d="M73 1460 c2 -11 7 -23 12 -27 4 -5 5 -2 1 5 -4 7 -1 12 8 12 21 0 21&#xA;16 0 24 -23 9 -24 8 -21 -14z"/>
<path d="M883 1339 c-7 -7 -13 -22 -13 -33 0 -16 2 -18 9 -7 5 8 16 11 25 8 8&#xA;-3 18 -2 21 3 4 6 -1 10 -9 10 -8 0 -16 7 -18 16 -2 12 -5 13 -15 3z"/>
<path d="M127 1303 c-15 -14 -5 -23 26 -22 17 1 24 3 15 6 -10 2 -18 9 -18 14&#xA;0 10 -14 12 -23 2z"/>
<path d="M708 1274 c6 -3 12 -12 12 -21 0 -8 6 -13 13 -10 22 7 13 30 -13 33&#xA;-14 1 -19 0 -12 -2z"/>
<path d="M1251 1204 c10 -13 10 -17 -2 -25 -16 -10 -8 -12 15 -3 28 11 12 44&#xA;-21 44 -3 0 0 -7 8 -16z"/>
<path d="M2020 1190 c-12 -12 -25 -18 -30 -15 -5 3 -8 -3 -7 -14 1 -15 4 -17&#xA;19 -7 10 6 18 14 18 18 0 5 7 8 15 8 8 0 15 7 15 15 0 20 -6 19 -30 -5z"/>
<path d="M2827 1203 c-5 -8 2 -24 17 -40 15 -15 26 -22 26 -15 0 6 -4 12 -8&#xA;12 -5 0 -13 12 -18 28 -6 18 -12 23 -17 15z"/>
<path d="M104 1179 c-3 -5 0 -8 7 -7 6 2 14 -3 16 -9 3 -7 0 -13 -6 -13 -6 0&#xA;-11 -5 -11 -12 0 -6 3 -8 7 -5 3 4 12 2 18 -3 9 -7 12 -2 11 19 -1 30 -29 50&#xA;-42 30z"/>
<path d="M660 1179 c0 -5 9 -9 21 -9 16 0 20 -4 15 -17 -5 -15 -4 -15 9 1 8&#xA;11 14 21 12 22 -8 8 -57 11 -57 3z"/>
<path d="M558 1173 c-9 -3 -16 -13 -15 -24 1 -20 21 -21 23 -1 3 22 4 23 24&#xA;12 11 -6 20 -8 20 -6 0 10 -35 22 -52 19z"/>
<path d="M441 1163 c0 -7 -8 -13 -17 -13 -8 0 -13 -4 -9 -10 3 -5 12 -7 20 -3&#xA;11 4 13 1 9 -11 -3 -9 -2 -16 4 -16 5 0 12 7 16 15 3 8 1 15 -4 15 -5 0 -11 8&#xA;-13 18 -3 9 -5 11 -6 5z"/>
<path d="M2000 1120 c0 -5 5 -10 10 -10 6 0 10 -7 10 -16 0 -12 6 -15 23 -9&#xA;12 3 27 7 34 7 7 1 10 4 8 8 -3 4 -16 5 -30 3 -17 -4 -27 0 -31 11 -7 18 -24&#xA;22 -24 6z"/>
<path d="M1955 1096 c14 -21 15 -29 5 -41 -10 -12 -9 -15 5 -15 10 0 15 3 12&#xA;6 -3 4 -2 14 2 23 7 12 2 21 -16 35 l-25 19 17 -27z"/>
<path d="M511 1094 c6 -7 8 -18 4 -24 -3 -5 -1 -10 4 -10 6 0 11 7 11 15 0 10&#xA;10 15 31 15 17 0 28 -4 24 -10 -3 -5 -2 -10 3 -10 6 0 12 7 16 15 4 10 -1 15&#xA;-17 16 -12 0 -37 2 -55 3 -26 3 -30 1 -21 -10z"/>
<path d="M1724 1073 c6 -18 3 -23 -11 -23 -11 0 -28 -7 -39 -16 -19 -15 -19&#xA;-16 1 -8 11 3 34 9 52 13 l31 6 -20 25 c-20 24 -20 24 -14 3z"/>
<path d="M261 1057 c-6 -6 -11 -18 -11 -26 0 -14 2 -14 9 -2 5 8 17 16 26 17&#xA;25 4 28 11 6 17 -11 2 -24 0 -30 -6z"/>
<path d="M2014 1034 c-14 -11 -15 -14 -4 -13 26 2 40 -1 39 -8 -4 -25 2 -36&#xA;12 -26 9 9 6 18 -8 37 -18 23 -22 24 -39 10z"/>
<path d="M293 1012 c10 -10 17 -28 17 -40 0 -11 5 -24 10 -27 6 -3 10 -1 10 5&#xA;0 21 -32 80 -43 80 -5 0 -3 -8 6 -18z"/>
<path d="M200 1002 c-46 -7 -47 -23 -1 -18 23 2 47 8 54 15 8 8 8 11 -1 11 -7&#xA;0 -12 -6 -12 -12 0 -8 -3 -9 -8 -3 -4 6 -18 9 -32 7z"/>
<path d="M1713 1003 c-24 -5 -30 -18 -14 -28 5 -3 12 -1 16 5 3 5 17 10 31 10&#xA;13 0 24 5 24 10 0 10 -16 11 -57 3z"/>
<path d="M1630 980 c-9 -5 -9 -9 -1 -14 13 -8 55 3 46 12 -9 9 -31 11 -45 2z"/>
<path d="M1126 964 c-3 -9 0 -11 11 -7 13 5 15 1 9 -20 -4 -16 -2 -27 4 -27 5&#xA;0 10 12 10 26 0 14 4 23 10 19 6 -3 10 0 10 8 0 18 -47 19 -54 1z"/>
<path d="M205 961 c-3 -6 -1 -11 5 -11 6 0 8 -10 4 -27 -7 -26 -7 -27 10 -10&#xA;19 18 18 48 -1 54 -6 2 -14 -1 -18 -6z"/>
<path d="M476 923 c-8 -21 -8 -22 9 -19 14 2 44 25 35 27 -3 0 -13 2 -22 4 -9&#xA;2 -19 -4 -22 -12z"/>
<path d="M956 905 c7 -37 9 -39 29 -32 8 4 15 14 14 24 0 17 -1 17 -8 0 -6&#xA;-16 -9 -16 -18 -5 -6 7 -13 20 -17 28 -3 8 -3 2 0 -15z"/>
<path d="M467 857 c8 -46 18 -52 19 -12 0 19 -5 36 -12 39 -10 4 -12 -3 -7&#xA;-27z"/>
<path d="M245 870 c3 -5 12 -7 20 -3 18 6 20 -8 3 -25 -20 -20 2 -13 30 10 15&#xA;11 19 18 10 15 -10 -3 -20 -2 -23 3 -4 6 -15 10 -26 10 -11 0 -18 -4 -14 -10z"/>
<path d="M863 858 c-15 -19 -23 -58 -12 -58 5 0 10 7 10 15 1 8 2 21 3 28 0 6&#xA;13 12 29 11 15 0 27 4 27 8 0 13 -47 9 -57 -4z"/>
<path d="M2306 863 c-8 -8 -8 -43 0 -43 3 0 11 6 18 13 10 10 10 15 1 24 -7 7&#xA;-16 9 -19 6z"/>
<path d="M2824 845 c22 -16 62 -20 70 -6 9 14 -6 21 -21 9 -10 -8 -20 -8 -41&#xA;1 -25 10 -26 10 -8 -4z"/>
<path d="M357 843 c-15 -14 -7 -43 13 -43 13 0 18 5 14 15 -4 8 -11 12 -17 8&#xA;-6 -4 -8 0 -4 10 7 18 5 21 -6 10z"/>
<path d="M1935 840 c-4 -6 -11 -8 -16 -5 -5 4 -9 -5 -9 -19 0 -34 6 -33 25 4&#xA;14 28 14 43 0 20z"/>
<path d="M2646 825 c-3 -8 5 -15 20 -18 15 -2 24 0 24 8 0 17 -38 26 -44 10z"/>
<path d="M230 823 c0 -7 5 -13 10 -13 6 0 10 -7 10 -15 0 -8 4 -15 9 -15 5 0&#xA;11 -8 13 -17 3 -13 6 -10 10 9 3 15 1 25 -4 22 -5 -3 -17 5 -28 18 -11 13 -19&#xA;17 -20 11z"/>
<path d="M956 749 c9 -51 12 -59 26 -59 10 0 10 2 -1 9 -9 6 -10 14 -3 27 7&#xA;14 5 24 -9 38 -19 19 -19 19 -13 -15z"/>
<path d="M445 759 c-17 -6 -17 -8 -2 -8 11 -1 17 -9 17 -26 0 -14 5 -25 10&#xA;-25 11 0 11 14 2 46 -6 16 -12 19 -27 13z"/>
<path d="M1057 763 c-12 -11 -8 -23 8 -23 16 0 10 -30 -9 -42 -6 -4 -7 -10 -3&#xA;-14 9 -9 36 26 37 47 0 19 -24 42 -33 32z"/>
<path d="M1533 763 c18 -5 18 -6 1 -24 -23 -25 0 -25 25 0 19 19 19 19 -2 25&#xA;-12 3 -26 5 -32 5 -5 -1 -2 -3 8 -6z"/>
<path d="M80 752 c0 -15 28 -47 35 -40 11 11 -5 48 -21 48 -8 0 -14 -4 -14 -8z"/>
<path d="M1380 751 c0 -6 5 -11 11 -11 8 0 9 -16 5 -47 -5 -46 -5 -47 8 -19&#xA;14 32 8 77 -12 84 -7 2 -12 -1 -12 -7z"/>
<path d="M2760 749 c0 -6 -7 -9 -15 -5 -18 6 -20 -10 -3 -20 6 -4 14 -2 16 4&#xA;2 7 10 12 18 12 9 0 12 5 9 10 -8 13 -25 13 -25 -1z"/>
<path d="M2898 742 c-21 -4 -24 -22 -4 -22 8 0 21 -3 30 -6 11 -4 16 -1 16 11&#xA;0 9 -4 14 -9 11 -5 -4 -11 -3 -13 2 -1 4 -11 6 -20 4z"/>
<path d="M1004 718 c9 -5 16 -16 16 -23 0 -8 4 -15 10 -15 5 0 7 7 4 15 -4 8&#xA;-1 15 5 15 27 0 8 15 -20 16 -24 1 -28 -1 -15 -8z"/>
<path d="M1574 718 c-3 -4 -3 -12 1 -17 3 -5 -5 -17 -17 -26 -13 -10 -17 -15&#xA;-9 -13 8 2 25 18 38 34 18 24 20 31 8 31 -9 0 -18 -4 -21 -9z"/>
<path d="M2074 706 c-9 -19 -7 -24 14 -34 20 -9 22 -9 11 4 -6 8 -9 18 -5 22&#xA;4 4 15 -4 25 -16 16 -22 17 -22 18 -3 1 13 -6 23 -20 27 -12 4 -24 10 -27 15&#xA;-3 4 -10 -3 -16 -15z"/>
<path d="M2650 721 c0 -9 -8 -11 -21 -8 -13 3 -19 1 -16 -6 2 -7 15 -10 28 -9&#xA;31 5 35 10 21 24 -9 9 -12 9 -12 -1z"/>
<path d="M1828 712 c-21 -4 -23 -17 -6 -28 7 -5 8 -3 3 5 -5 9 0 12 15 9 13&#xA;-2 25 2 27 8 4 11 -8 13 -39 6z"/>
<path d="M238 705 c-3 -6 -1 -21 5 -35 5 -14 9 -34 8 -45 -2 -15 0 -17 9 -8&#xA;10 9 9 21 -2 54 -8 24 -17 39 -20 34z"/>
<path d="M1215 696 c-17 -54 -16 -53 -32 -28 -9 12 -20 22 -26 22 -8 0 -8 -3&#xA;0 -11 6 -6 9 -17 7 -23 -2 -6 7 -12 20 -12 19 -1 27 5 35 29 6 17 9 32 6 35&#xA;-2 3 -7 -3 -10 -12z"/>
<path d="M2254 679 c14 -11 33 -30 41 -42 11 -16 15 -17 15 -6 0 9 -9 26 -20&#xA;39 -11 13 -20 19 -20 15 0 -5 -5 -4 -12 3 -7 7 -16 12 -21 12 -5 0 2 -9 17&#xA;-21z"/>
<path d="M825 670 c-3 -6 1 -7 10 -4 13 5 15 2 9 -22 -4 -16 -13 -36 -20 -45&#xA;-17 -18 -18 -29 -4 -29 6 0 10 7 10 16 0 8 4 13 9 9 12 -7 26 59 16 74 -8 14&#xA;-22 14 -30 1z"/>
<path d="M1436 659 c-14 -11 -26 -26 -25 -32 0 -9 2 -9 6 0 2 7 20 15 39 19&#xA;36 7 44 18 20 27 -8 3 -26 -3 -40 -14z"/>
<path d="M60 651 c-8 -6 -18 -7 -22 -5 -4 3 -8 -2 -8 -10 0 -23 27 -20 40 4&#xA;12 22 11 24 -10 11z"/>
<path d="M1063 643 c-15 -6 -17 -63 -3 -63 6 0 8 11 4 25 -6 25 10 36 19 13 3&#xA;-7 6 -3 6 10 1 22 -3 25 -26 15z"/>
<path d="M145 630 c-4 -6 -11 -8 -16 -5 -5 4 -9 -1 -9 -9 0 -23 19 -30 27 -9&#xA;4 10 11 21 17 25 8 5 7 8 -1 8 -6 0 -15 -5 -18 -10z"/>
<path d="M2143 608 c1 -8 -10 -13 -29 -13 -21 0 -30 -4 -27 -12 3 -8 14 -11&#xA;29 -7 16 4 24 2 25 -7 0 -8 4 -5 9 6 12 28 12 45 0 45 -5 0 -9 -6 -7 -12z"/>
<path d="M425 590 c-3 -11 -11 -20 -16 -20 -6 0 -7 -5 -4 -10 7 -11 45 25 45&#xA;42 0 16 -19 8 -25 -12z"/>
<path d="M916 585 c-16 -25 -46 -34 -46 -14 0 5 -5 7 -11 3 -7 -4 -7 -10 -1&#xA;-16 17 -17 58 -1 70 27 15 32 9 32 -12 0z"/>
<path d="M1280 570 c0 -8 5 -22 11 -30 9 -13 10 -13 6 2 -3 9 1 19 9 22 21 8&#xA;17 22 -6 22 -11 0 -20 -7 -20 -16z"/>
<path d="M1138 554 c3 -19 1 -25 -7 -20 -13 8 -15 -13 -2 -32 6 -11 10 -10 16&#xA;5 13 29 13 52 0 63 -9 8 -11 4 -7 -16z"/>
<path d="M2696 542 c-4 -12 -11 -20 -16 -17 -5 3 -11 1 -14 -4 -9 -14 18 -20&#xA;35 -7 11 7 14 18 9 31 -7 19 -7 19 -14 -3z"/>
<path d="M716 541 c-4 -6 -2 -11 4 -11 6 0 8 -5 5 -10 -4 -6 -11 -8 -16 -5 -5&#xA;4 -9 1 -9 -6 0 -6 -7 -17 -15 -23 -11 -8 -13 -19 -7 -41 l9 -30 7 37 c4 21 16&#xA;44 27 52 16 11 19 18 11 31 -6 12 -11 14 -16 6z"/>
<path d="M2083 535 c6 -17 34 -17 40 -1 5 12 0 15 -18 14 -14 -1 -24 -7 -22&#xA;-13z"/>
<path d="M30 510 c9 -17 14 -18 30 -8 22 14 23 13 -13 22 -26 6 -27 5 -17 -14z"/>
<path d="M398 523 c-9 -2 -23 -15 -32 -28 -13 -20 -13 -25 -1 -35 8 -7 12 -17&#xA;8 -23 -3 -6 -1 -7 5 -3 16 10 15 33 0 39 -8 3 -2 14 17 31 17 14 28 25 25 25&#xA;-3 -1 -13 -3 -22 -6z"/>
<path d="M742 498 c-7 -7 -12 -20 -12 -30 0 -10 -4 -18 -10 -18 -5 0 -10 -5&#xA;-10 -10 0 -6 11 -3 24 7 15 11 20 21 13 25 -7 4 -7 11 2 22 16 19 10 21 -7 4z"/>
<path d="M2402 484 c10 -20 12 -21 29 -6 11 9 19 17 19 18 0 1 -13 4 -29 6&#xA;-27 4 -28 3 -19 -18z"/>
<path d="M72 482 c-9 -7 -8 -13 8 -27 11 -10 23 -15 27 -12 3 4 2 7 -4 7 -6 0&#xA;-9 9 -6 20 6 21 -3 25 -25 12z"/>
<path d="M158 483 c-15 -4 -15 -6 3 -24 16 -16 18 -23 8 -35 -9 -11 -8 -14 5&#xA;-14 13 0 16 8 13 35 -4 40 -6 43 -29 38z"/>
<path d="M2114 465 c3 -8 -2 -18 -10 -23 -9 -5 -14 -17 -13 -27 3 -15 9 -12&#xA;31 17 27 35 27 36 7 41 -15 4 -19 2 -15 -8z"/>
<path d="M1186 452 c-6 -10 39 -53 48 -45 10 10 7 25 -3 18 -5 -3 -16 4 -24&#xA;16 -8 11 -17 16 -21 11z"/>
<path d="M1340 440 c1 -8 7 -28 16 -45 l14 -30 -5 35 c-5 35 -25 67 -25 40z"/>
<path d="M988 410 c-22 -20 -24 -37 -3 -20 8 6 19 9 25 5 5 -3 10 1 10 9 0 23&#xA;-13 25 -32 6z"/>
<path d="M2306 414 c-3 -8 -16 -14 -29 -14 -13 0 -31 -6 -41 -13 -16 -11 -15&#xA;-13 8 -15 14 -1 26 2 26 7 0 5 9 11 20 14 13 3 20 0 20 -9 0 -8 -7 -14 -15&#xA;-14 -8 0 -15 -5 -15 -11 0 -10 -24 -39 -33 -39 -10 0 -47 38 -47 49 0 6 -4 11&#xA;-9 11 -5 0 -9 -6 -8 -12 0 -7 -1 -22 -2 -33 -1 -17 -3 -18 -11 -5 -8 12 -10&#xA;11 -10 -7 0 -16 4 -21 15 -17 8 4 15 12 15 19 0 9 9 8 36 -5 43 -23 59 -18 73&#xA;22 7 19 15 27 22 22 9 -5 10 -2 6 10 -4 10 -1 24 7 32 17 16 29 4 20 -20 -5&#xA;-12 0 -14 22 -10 36 7 41 11 24 27 -10 9 -11 9 -6 0 10 -19 -5 -16 -19 3 -15&#xA;21 -62 26 -69 8z"/>
<path d="M150 364 c0 -14 5 -24 11 -22 6 2 10 7 10 11 -1 4 -1 14 -1 22 0 8&#xA;-4 15 -10 15 -5 0 -10 -12 -10 -26z"/>
<path d="M682 360 c11 -18 13 -18 17 -4 2 14 5 14 12 3 7 -11 9 -11 9 4 0 12&#xA;-8 17 -25 17 -23 0 -24 -2 -13 -20z"/>
<path d="M1566 353 c4 -56 5 -58 15 -35 6 15 5 30 -1 43 -14 25 -16 24 -14 -8z"/>
<path d="M2820 352 c0 -6 4 -13 9 -16 4 -3 11 -20 15 -38 4 -22 10 -28 16 -22&#xA;7 7 7 19 1 35 -10 28 -41 58 -41 41z"/>
<path d="M2319 333 c-1 -5 -3 -21 -5 -37 -2 -16 -6 -36 -9 -45 -4 -11 -1 -10&#xA;12 4 12 12 18 31 16 50 -2 16 0 24 3 18 3 -7 13 -13 22 -13 13 0 12 3 -4 15&#xA;-21 16 -33 19 -35 8z"/>
<path d="M1950 260 c-6 -65 -5 -78 6 -68 3 3 4 34 2 69 l-3 64 -5 -65z"/>
<path d="M2369 293 c-12 -15 -12 -16 2 -11 13 5 16 2 13 -15 -4 -21 -4 -21 5&#xA;-2 20 42 7 61 -20 28z"/>
<path d="M2906 294 c-9 -24 -7 -56 3 -50 12 8 20 55 11 61 -4 3 -11 -2 -14&#xA;-11z"/>
<path d="M381 270 c-13 -32 -3 -60 22 -60 8 0 8 3 0 11 -6 6 -9 26 -6 45 7 42&#xA;2 43 -16 4z"/>
<path d="M1347 293 c-11 -10 -8 -41 5 -49 8 -5 9 0 5 15 -4 18 -3 20 9 10 19&#xA;-16 30 -4 14 16 -14 16 -23 19 -33 8z"/>
<path d="M1120 280 c0 -7 -8 -9 -20 -5 -14 5 -20 2 -20 -10 0 -12 6 -15 23&#xA;-10 30 10 41 21 28 29 -6 4 -11 2 -11 -4z"/>
<path d="M313 266 c5 -14 3 -17 -8 -12 -9 3 -15 0 -15 -9 0 -8 8 -15 18 -15&#xA;20 0 27 35 10 46 -8 5 -9 1 -5 -10z"/>
<path d="M1461 261 c-12 -22 -15 -68 -4 -57 4 4 8 17 8 29 0 12 6 21 13 20 14&#xA;-3 16 13 3 22 -6 3 -15 -3 -20 -14z"/>
<path d="M2049 267 c-16 -13 -33 -47 -22 -47 4 0 15 7 25 17 27 25 22 -1 -8&#xA;-37 -15 -17 -24 -34 -20 -37 4 -4 13 2 20 13 42 57 45 60 56 44 6 -10 10 -11&#xA;10 -2 0 22 20 13 21 -10 0 -13 3 -17 6 -10 4 9 8 10 18 2 9 -8 15 -8 20 0 3 5&#xA;-1 13 -9 16 -19 7 -21 35 -3 53 10 11 9 12 -3 6 -8 -4 -23 -15 -34 -24 -17&#xA;-15 -19 -14 -33 7 -18 25 -22 26 -44 9z"/>
<path d="M662 263 c-10 -4 -10 -8 -1 -19 9 -11 9 -14 0 -14 -7 0 -9 -4 -6 -10&#xA;15 -25 37 1 26 31 -3 9 -12 14 -19 12z"/>
<path d="M1247 263 c-4 -7 -3 -14 3 -18 7 -4 7 -13 -1 -26 -13 -25 -6 -35 11&#xA;-15 8 11 9 24 3 43 -6 16 -12 23 -16 16z"/>
<path d="M2351 248 c-10 -27 10 -51 33 -42 24 9 19 26 -5 19 -19 -6 -21 -4&#xA;-17 19 6 32 0 34 -11 4z"/>
<path d="M2593 257 c-4 -8 -14 -16 -22 -18 -10 -4 -10 -7 3 -18 13 -11 17 -9&#xA;26 14 12 30 7 45 -7 22z"/>
<path d="M510 237 c0 -19 -4 -26 -12 -22 -7 4 -4 -1 6 -9 25 -20 42 -21 26 -1&#xA;-6 8 -9 18 -7 23 3 4 2 14 -4 22 -6 11 -9 8 -9 -13z"/>
<path d="M1141 242 c-10 -18 -9 -26 2 -43 12 -16 16 -17 20 -5 3 8 2 27 -2 43&#xA;l-8 28 -12 -23z"/>
<path d="M1793 220 c1 -16 5 -30 10 -30 4 0 7 -7 7 -15 0 -8 -4 -15 -10 -15&#xA;-5 0 -10 -4 -10 -10 0 -15 17 -12 23 4 7 19 -4 96 -14 96 -4 0 -7 -13 -6 -30z"/>
<path d="M2687 210 c-10 -16 -23 -29 -30 -27 -10 2 -12 -41 -2 -51 5 -5 55 21&#xA;55 30 0 11 -18 10 -25 -2 -4 -6 -11 -8 -16 -4 -5 3 6 20 25 39 19 18 32 36 29&#xA;39 -11 11 -19 6 -36 -24z"/>
<path d="M416 212 c-5 -15 -3 -29 5 -38 10 -12 10 -20 1 -35 -8 -12 -8 -19 -2&#xA;-19 6 0 8 -11 4 -27 -5 -19 -3 -25 4 -18 6 6 12 21 14 35 2 20 10 26 41 31 47&#xA;7 54 14 28 28 -17 9 -20 9 -15 -3 4 -10 -3 -15 -23 -18 -26 -3 -29 0 -39 42&#xA;-9 40 -11 42 -18 22z"/>
<path d="M1203 215 c-7 -8 -13 -23 -13 -35 0 -36 25 -22 26 15 0 19 0 35 0 35&#xA;-1 -1 -7 -7 -13 -15z"/>
<path d="M1560 216 c0 -9 -4 -16 -10 -16 -5 0 -10 -10 -10 -21 0 -17 3 -19 14&#xA;-10 18 15 27 49 15 57 -5 3 -9 -2 -9 -10z"/>
<path d="M2421 217 c0 -11 -10 -21 -21 -24 -11 -3 -20 -9 -20 -13 0 -5 10 -6&#xA;23 -2 20 5 21 4 8 -11 -7 -9 -9 -17 -3 -17 5 0 13 7 16 16 5 13 9 14 21 4 9&#xA;-7 15 -8 15 -2 0 5 -6 12 -14 15 -8 3 -16 16 -19 29 -3 16 -5 18 -6 5z"/>
<path d="M2190 218 c0 -2 4 -17 9 -35 7 -25 6 -33 -6 -38 -14 -5 -13 -8 5 -25&#xA;25 -24 40 -27 21 -4 -10 13 -10 17 2 24 11 7 11 12 1 22 -6 6 -12 20 -12 29 0&#xA;10 -4 21 -10 24 -5 3 -10 5 -10 3z"/>
<path d="M324 195 c-18 -13 -18 -14 3 -8 16 4 25 0 29 -12 5 -13 9 -14 15 -3&#xA;10 15 12 34 2 25 -3 -4 -11 -2 -18 3 -8 6 -18 5 -31 -5z"/>
<path d="M2473 196 c0 -6 -3 -21 -7 -33 -5 -14 -3 -23 3 -23 6 0 12 7 12 15 2&#xA;23 4 29 11 41 4 6 1 11 -6 11 -7 0 -13 -5 -13 -11z"/>
<path d="M1070 192 c0 -5 5 -23 11 -40 12 -35 34 -34 23 1 -7 23 -34 54 -34&#xA;39z"/>
<path d="M2904 183 c0 -10 -6 -18 -14 -18 -8 0 -15 -7 -15 -15 0 -8 6 -14 14&#xA;-12 8 2 18 -3 23 -10 6 -9 7 -6 3 9 -3 12 -1 24 5 28 15 9 12 35 -4 35 -8 0&#xA;-13 -8 -12 -17z"/>
<path d="M2088 181 c11 -7 11 -11 -2 -24 -18 -17 -21 -47 -6 -47 6 0 10 7 10&#xA;16 0 9 8 23 18 30 15 12 15 15 2 24 -8 5 -19 10 -25 10 -5 0 -4 -4 3 -9z"/>
<path d="M2330 180 c0 -5 5 -12 10 -15 6 -4 9 -13 8 -20 -2 -8 0 -14 5 -14 4&#xA;-1 7 1 7 4 0 3 0 14 0 24 0 10 -7 21 -15 25 -8 3 -15 1 -15 -4z"/>
<path d="M2243 166 c4 -10 7 -23 7 -31 0 -7 9 -15 19 -18 14 -3 18 -1 14 9 -3&#xA;8 -9 14 -14 14 -5 0 -9 6 -9 14 0 8 -5 18 -12 22 -8 5 -9 2 -5 -10z"/>
<path d="M1671 129 c-7 -23 -10 -44 -7 -47 3 -3 6 -3 6 0 0 3 7 22 15 41 8 20&#xA;11 38 6 41 -4 3 -14 -13 -20 -35z"/>
<path d="M1434 144 c4 -9 0 -24 -8 -33 -10 -11 -12 -21 -6 -31 8 -13 10 -12&#xA;10 3 0 9 5 17 10 17 6 0 10 14 10 30 0 17 -5 30 -11 30 -6 0 -8 -7 -5 -16z"/>
<path d="M183 116 c9 -7 17 -18 17 -24 0 -5 7 -13 16 -16 21 -8 24 -8 24 5 0&#xA;5 -4 8 -9 5 -4 -3 -13 6 -19 19 -7 14 -20 25 -29 25 -17 -1 -17 -1 0 -14z"/>
<path d="M620 124 c0 -6 6 -18 13 -28 12 -16 14 -15 36 8 21 22 22 26 7 26 -9&#xA;0 -15 -4 -11 -9 11 -19 -18 -24 -32 -6 -7 11 -13 14 -13 9z"/>
<path d="M250 110 c-12 -8 -9 -10 13 -10 18 0 27 -5 27 -15 0 -13 3 -13 13 -3&#xA;12 10 10 15 -11 25 -29 15 -24 15 -42 3z"/>
<path d="M351 83 c-13 -14 -11 -19 17 -44 33 -30 52 -37 52 -19 0 6 -6 10 -14&#xA;10 -19 0 -46 38 -39 56 7 18 1 17 -16 -3z"/>
<path d="M860 95 c0 -3 7 -16 16 -30 14 -21 14 -24 -2 -33 -12 -7 -13 -11 -4&#xA;-17 6 -4 18 -1 25 6 10 11 10 20 -1 47 -12 27 -34 45 -34 27z"/>
<path d="M1060 83 c0 -13 3 -14 12 -5 18 18 25 15 32 -14 4 -15 10 -24 13 -21&#xA;3 3 3 18 -1 32 -5 18 -13 25 -31 25 -17 0 -25 -6 -25 -17z"/>
<path d="M1457 83 c-4 -3 -7 -18 -6 -32 0 -14 3 -20 6 -13 2 6 11 12 19 12 8&#xA;0 14 4 14 10 0 5 -7 7 -15 4 -11 -5 -13 -2 -9 10 6 17 2 21 -9 9z"/>
<path d="M2248 80 c22 -9 31 -30 12 -30 -5 0 -10 -6 -10 -12 0 -7 12 0 26 15&#xA;14 16 23 31 19 35 -3 3 -10 0 -14 -7 -6 -9 -11 -10 -15 -2 -4 6 -15 11 -24 10&#xA;-12 0 -11 -3 6 -9z"/>
<path d="M561 48 c-8 -18 -16 -37 -19 -43 -2 -6 3 -1 12 10 14 18 15 18 16 3&#xA;0 -10 5 -18 10 -18 14 0 13 13 -2 28 -6 6 -8 15 -4 19 4 4 11 1 16 -7 5 -8 11&#xA;-12 14 -10 2 3 -3 15 -12 28 l-17 22 -14 -32z"/>
<path d="M693 72 c-26 -4 -30 -17 -9 -25 8 -3 20 1 27 9 14 18 11 21 -18 16z"/>
<path d="M783 55 c-12 -14 -17 -27 -13 -30 5 -3 12 1 17 8 4 7 16 16 26 20 9&#xA;3 17 11 17 17 0 18 -24 10 -47 -15z"/>
<path d="M2318 60 c-9 -10 -14 -21 -11 -24 8 -8 43 17 43 31 0 18 -12 15 -32&#xA;-7z"/>
<path d="M916 52 c6 -4 14 -15 17 -26 6 -16 10 -16 24 -5 15 13 15 14 0 17&#xA;-10 2 -17 8 -17 13 0 5 -8 9 -17 9 -11 0 -14 -3 -7 -8z"/>
<path d="M2772 25 c-12 -14 -17 -25 -12 -25 17 0 53 37 42 44 -5 3 -19 -6 -30&#xA;-19z"/>
</g>
</svg>